<?xml version="1.0" encoding="utf-8"?>
<!-- Generator: Adobe Illustrator 16.0.3, SVG Export Plug-In . SVG Version: 6.00 Build 0)  -->
<!DOCTYPE svg PUBLIC "-//W3C//DTD SVG 1.1//EN" "http://www.w3.org/Graphics/SVG/1.1/DTD/svg11.dtd">
<svg version="1.1" id="Layer_1" xmlns="http://www.w3.org/2000/svg" xmlns:xlink="http://www.w3.org/1999/xlink" x="0px" y="0px"
	 width="772.934px" height="644px" viewBox="0 0 772.934 644" enable-background="new 0 0 772.934 644" xml:space="preserve">
<circle fill="#BCC8D3" cx="381.934" cy="322" r="322"/>
<g>
	<path fill="#DAE0E6" d="M720.434,272.124c0-52.767-43.492-95.542-97.142-95.542c-12.969,0-25.342,2.506-36.653,7.043
		c-11.383-46.176-61.94-104.488-138.278-102.966c-76.372,1.523-117.835,56.51-125.861,69.968
		c-10.99,18.428-19.884,50.251-21.227,70.718C275.608,234.058,258,260.203,258,290.396c0,42.676,35.174,77.271,78.564,77.271
		h291.218v-0.105C679.348,365.253,720.434,323.41,720.434,272.124z"/>
	<path fill="#2E3D48" d="M627.783,372.667H336.564c-46.078,0-83.564-36.907-83.564-82.271c0-30.339,16.599-57.755,43.512-72.219
		c1.88-20.139,10.197-50.833,21.694-70.111c1.721-2.885,43.135-70.672,130.056-72.406c1.012-0.02,2.018-0.03,3.021-0.03
		c44.397,0,76.034,19.375,94.756,35.628c20.989,18.221,36.788,41.933,43.979,65.788c10.681-3.627,21.848-5.463,33.274-5.463
		c56.321,0,102.142,45.103,102.142,100.542c0,53.526-42.252,97.421-96.383,100.381C628.646,372.61,628.221,372.667,627.783,372.667z
		 M451.283,85.629c-0.937,0-1.877,0.009-2.822,0.028c-31.459,0.627-60.282,10.558-85.668,29.516
		c-23.354,17.441-34.773,35.96-35.998,38.014c-9.938,16.663-19.148,47.385-20.532,68.484c-0.117,1.779-1.172,3.362-2.77,4.153
		C278.516,238.198,263,262.94,263,290.396c0,39.851,33.001,72.271,73.564,72.271h290.193c0.261-0.054,0.528-0.088,0.802-0.101
		c49.275-2.206,87.875-41.933,87.875-90.442c0-49.925-41.335-90.542-92.142-90.542c-12.028,0-23.734,2.249-34.792,6.684
		c-1.344,0.54-2.854,0.469-4.143-0.191s-2.227-1.847-2.573-3.252c-5.752-23.334-21.565-48.012-42.301-66.013
		C522.048,103.672,492.593,85.629,451.283,85.629z"/>
</g>
<g>
	<path fill="#F9FCFD" d="M602.434,316.413c0-69.312-56.188-125.5-125.5-125.5c-16.756,0-32.74,3.292-47.354,9.251
		c-14.706-60.654-80.023-137.25-178.646-135.251c-98.667,2-152.235,74.229-162.604,91.906
		c-14.198,24.206-25.689,66.007-27.423,92.892C27.749,266.412,5,300.753,5,340.413c0,56.057,45.443,101.5,101.5,101.5h376.235
		v-0.139C549.354,438.742,602.434,383.779,602.434,316.413z"/>
	<path fill="#2E3D48" d="M482.735,446.913H106.5c-58.724,0-106.5-47.775-106.5-106.5c0-39.527,21.433-75.229,56.131-93.853
		c2.25-26.238,12.985-66.865,27.887-92.271c1.701-2.9,17.543-29.035,49.479-53.284c34.759-26.392,74.237-40.217,117.335-41.091
		c1.298-0.026,2.59-0.039,3.877-0.039c56.927,0,97.489,25.255,121.493,46.442c27.338,24.13,47.801,55.632,56.792,87.188
		c14.076-5.04,28.831-7.592,43.94-7.592c71.958,0,130.5,58.542,130.5,130.5c0,33.807-12.876,65.863-36.257,90.265
		c-23.033,24.039-53.896,38.227-87.026,40.032C483.702,446.842,483.227,446.913,482.735,446.913z M254.709,69.875
		c-1.219,0-2.444,0.012-3.674,0.037c-40.94,0.83-78.452,13.971-111.492,39.057c-30.404,23.085-45.302,47.654-46.9,50.379
		c-12.947,22.072-24.945,62.752-26.747,90.684c-0.114,1.77-1.157,3.346-2.741,4.144C30.368,270.691,10,303.734,10,340.413
		c0,53.21,43.29,96.5,96.5,96.5h375.062c0.305-0.073,0.621-0.119,0.945-0.134c64.445-2.933,114.926-55.805,114.926-120.366
		c0-66.444-54.056-120.5-120.5-120.5c-15.717,0-31.014,2.988-45.466,8.881c-1.347,0.549-2.868,0.486-4.165-0.179
		c-1.296-0.663-2.239-1.858-2.582-3.273c-7.506-30.959-28.118-63.679-55.136-87.528C346.875,93.77,308.511,69.875,254.709,69.875z"
		/>
</g>
<g>
	<polygon fill="#FFFFFF" points="500.786,236.732 306.396,236.732 306.396,529.706 534.11,529.706 534.11,270.056 	"/>
	<path fill="#2E3D48" d="M534.11,534.706H306.396c-2.761,0-5-2.238-5-5V236.732c0-2.761,2.239-5,5-5h194.391
		c1.326,0,2.598,0.527,3.536,1.464l33.324,33.324c0.938,0.938,1.464,2.209,1.464,3.536v259.65
		C539.11,532.468,536.871,534.706,534.11,534.706z M311.396,524.706H529.11V272.127l-30.395-30.395H311.396V524.706z"/>
</g>
<g>
	<polygon fill="#F15D3F" points="570.211,505.407 482.735,438.064 482.735,547.062 513.68,532.327 529.934,571 554.934,561 
		537.856,520.814 	"/>
	<path fill="#2E3D48" d="M529.936,576.001c-1.955,0-3.808-1.153-4.611-3.063L511.1,539.094l-26.215,12.483
		c-1.552,0.736-3.369,0.629-4.819-0.287s-2.331-2.512-2.331-4.228V438.064c0-1.905,1.083-3.645,2.792-4.486
		c1.708-0.843,3.747-0.639,5.258,0.524l87.476,67.343c1.378,1.061,2.105,2.761,1.922,4.49c-0.184,1.729-1.252,3.238-2.822,3.986
		l-28.029,13.347l15.204,35.775c0.526,1.238,0.531,2.635,0.015,3.877c-0.517,1.241-1.511,2.222-2.759,2.722l-25,10
		C531.183,575.886,530.554,576.001,529.936,576.001z M513.68,527.327c0.603,0,1.207,0.109,1.781,0.328
		c1.277,0.486,2.299,1.475,2.828,2.734l14.351,34.143l15.695-6.277l-15.08-35.484c-1.048-2.466,0.034-5.318,2.452-6.471
		l24.996-11.902l-72.967-56.174v90.92l23.794-11.331C512.208,527.49,512.943,527.327,513.68,527.327z"/>
</g>
<g>
	<polygon fill="#3EBEB3" points="342.934,403.667 496.268,403.667 464.934,350.333 426.934,387.667 385.601,331.667 	"/>
	<path fill="#2E3D48" d="M496.268,408.667H342.934c-1.796,0-3.455-0.964-4.344-2.524c-0.89-1.562-0.873-3.479,0.043-5.024l42.667-72
		c0.854-1.442,2.375-2.36,4.049-2.445c1.668-0.086,3.28,0.676,4.275,2.024l37.914,51.367l33.893-33.298
		c1.099-1.079,2.637-1.591,4.16-1.39c1.527,0.202,2.875,1.097,3.655,2.424l31.333,53.333c0.908,1.547,0.919,3.461,0.028,5.017
		C499.716,407.707,498.061,408.667,496.268,408.667z M351.709,398.667h135.822l-23.663-40.277l-33.43,32.843
		c-1.033,1.015-2.459,1.531-3.899,1.418c-1.444-0.114-2.767-0.85-3.627-2.015l-36.854-49.932L351.709,398.667z"/>
</g>
<g>
	<circle fill="#E7C51F" cx="438.934" cy="317.23" r="14.23"/>
	<path fill="#2E3D48" d="M438.934,336.461c-10.604,0-19.23-8.627-19.23-19.23s8.627-19.23,19.23-19.23s19.23,8.627,19.23,19.23
		S449.538,336.461,438.934,336.461z M438.934,308c-5.09,0-9.23,4.141-9.23,9.23s4.141,9.23,9.23,9.23s9.23-4.141,9.23-9.23
		S444.024,308,438.934,308z"/>
</g>
<path fill="#2E3D48" d="M534.11,275.056h-33.324c-2.761,0-5-2.239-5-5v-33.324c0-2.761,2.239-5,5-5s5,2.239,5,5v28.324h28.324
	c2.761,0,5,2.239,5,5S536.871,275.056,534.11,275.056z"/>
</svg>
